<?xml version="1.0" encoding="UTF-8" standalone="no"?>
<!-- Created with Inkscape (http://www.inkscape.org/) -->

<svg
   xmlns:dc="http://purl.org/dc/elements/1.1/"
   xmlns:cc="http://creativecommons.org/ns#"
   xmlns:rdf="http://www.w3.org/1999/02/22-rdf-syntax-ns#"
   xmlns:svg="http://www.w3.org/2000/svg"
   xmlns="http://www.w3.org/2000/svg"
   xmlns:sodipodi="http://sodipodi.sourceforge.net/DTD/sodipodi-0.dtd"
   xmlns:inkscape="http://www.inkscape.org/namespaces/inkscape"
   width="48"
   height="48"
   viewBox="0 0 48 48"
   version="1.1"
   id="SVGRoot"
   inkscape:version="0.92.3 (2405546, 2018-03-11)"
   sodipodi:docname="debug-init.svg">
  <sodipodi:namedview
     id="base"
     pagecolor="#ffffff"
     bordercolor="#666666"
     borderopacity="1.0"
     inkscape:pageopacity="0.0"
     inkscape:pageshadow="2"
     inkscape:zoom="8"
     inkscape:cx="16"
     inkscape:cy="16"
     inkscape:document-units="px"
     inkscape:current-layer="layer1"
     showgrid="false"
     inkscape:window-width="1300"
     inkscape:window-height="741"
     inkscape:window-x="66"
     inkscape:window-y="27"
     inkscape:window-maximized="1"
     inkscape:grid-bbox="true" />
  <defs
     id="defs769" />
  <metadata
     id="metadata772">
    <rdf:RDF>
      <cc:Work
         rdf:about="">
        <dc:format>image/svg+xml</dc:format>
        <dc:type
           rdf:resource="http://purl.org/dc/dcmitype/StillImage" />
        <dc:title></dc:title>
      </cc:Work>
    </rdf:RDF>
  </metadata>
  <g
     id="layer1"
     inkscape:groupmode="layer"
     inkscape:label="Capa 1"
     transform="translate(0,16)">
    <g
       id="g400"
       transform="matrix(1.3333333,0,0,-1.3333333,-381.54594,807.77877)">
      <path
         d="m 304.2533,609.7422 c 0.8476,0.003 1.6203,-0.2523 2.264,-0.7449 0.9318,0.1788 1.6932,1.5063 2.0447,2.4576 0.1414,0.3818 0.0929,0.485 0.6443,0.3835 0.6791,-0.1253 0.4269,-0.8155 0.1119,-1.4167 -0.3773,-0.72 -1.2019,-1.7246 -2.0395,-2.2 0.1982,-0.2642 0.3739,-0.5618 0.525,-0.8909 0.5493,-0.0922 1.2472,-0.2773 1.5565,-0.5596 0.6928,-0.0544 1.7422,0.3912 2.7816,1.0914 0.4074,0.2746 0.7197,0.3906 1.2694,0.4515 0.938,0.1038 1.3722,-0.8918 0.6789,-1.1869 -0.9542,-0.4062 -2.3587,-1.0386 -3.2831,-1.3833 -1.9582,-0.8129 -4.1454,-1.415 -6.5537,-1.415 -2.4083,0 -4.5955,0.6021 -6.5537,1.415 -0.9244,0.3447 -2.3292,0.9771 -3.2834,1.3833 -0.6931,0.2951 -0.2588,1.2907 0.6792,1.1869 0.5496,-0.0609 0.8617,-0.1769 1.2694,-0.4515 1.0394,-0.7002 2.0888,-1.1458 2.7816,-1.0914 0.3093,0.2823 1.0069,0.4674 1.5565,0.5596 0.1511,0.3291 0.3268,0.6267 0.525,0.8909 -0.8377,0.4754 -1.6625,1.48 -2.0396,2.2 -0.3149,0.6012 -0.5672,1.2914 0.1117,1.4167 0.5517,0.1015 0.5032,-0.002 0.6446,-0.3835 0.3515,-0.9513 1.1129,-2.2788 2.0447,-2.4576 0.6434,0.4926 1.4164,0.7475 2.264,0.7449 z m -7.5481,-5.8946 c -1.0877,0.5884 -3.2199,10e-4 -4.0105,-0.425 -0.5675,-0.3055 -1.5953,-0.7287 -0.8214,-1.4589 0.3257,-0.3076 0.6998,-0.0301 1.0099,0.1998 0.6259,0.4637 2.2315,0.65 3.3957,0.428 -0.2659,-0.9708 -0.4102,-2.0075 -0.4102,-3.0841 0,-1.838 0.4198,-3.5591 1.1511,-5.0371 -1.2016,-0.7342 -2.635,-2.202 -3.2241,-2.8389 -0.5561,-0.6018 -1.5049,-1.4018 -0.5887,-1.592 0.5091,-0.1057 0.8132,0.1545 1.1083,0.5372 0.6012,0.7809 2.3145,1.9225 3.5924,2.4225 1.2713,-1.7462 3.0458,-2.9625 5.0558,-3.331 v 9.5573 c 0,0.7095 0.5803,1.2897 1.2898,1.2897 0.7095,0 1.2898,-0.5802 1.2898,-1.2897 v -9.5573 c 2.01,0.3685 3.7845,1.5848 5.0555,3.331 1.2779,-0.5 2.9914,-1.6416 3.5927,-2.4225 0.2948,-0.3827 0.5992,-0.6429 1.1083,-0.5372 0.9162,0.1902 -0.0326,0.9902 -0.5887,1.592 -0.5894,0.6369 -2.0226,2.1047 -3.2242,2.8389 0.7314,1.478 1.1509,3.1991 1.1509,5.0371 0,1.0766 -0.144,2.1133 -0.4102,3.0841 1.1645,0.222 2.77,0.0357 3.3959,-0.428 0.3101,-0.2299 0.684,-0.5074 1.01,-0.1998 0.7736,0.7302 -0.2542,1.1534 -0.8215,1.4589 -0.7905,0.4264 -2.923,1.0134 -4.0107,0.425 -2.1555,-1.0704 -4.7526,-1.6954 -7.5478,-1.6954 -2.7955,0 -5.3926,0.625 -7.5481,1.6954"
         style="fill:#f5821f;fill-opacity:1;fill-rule:evenodd;stroke:none"
         id="path402"
         inkscape:connector-curvature="0" />
    </g>
  </g>
</svg>
