<?xml version="1.0" encoding="UTF-8" standalone="no"?>
<!-- Created with Inkscape (http://www.inkscape.org/) -->

<svg
   xmlns:dc="http://purl.org/dc/elements/1.1/"
   xmlns:cc="http://creativecommons.org/ns#"
   xmlns:rdf="http://www.w3.org/1999/02/22-rdf-syntax-ns#"
   xmlns:svg="http://www.w3.org/2000/svg"
   xmlns="http://www.w3.org/2000/svg"
   xmlns:sodipodi="http://sodipodi.sourceforge.net/DTD/sodipodi-0.dtd"
   xmlns:inkscape="http://www.inkscape.org/namespaces/inkscape"
   width="427.23972"
   height="298.49713"
   viewBox="0 0 427.23972 298.49713"
   id="svg4343"
   version="1.1"
   inkscape:version="0.91 r13725"
   sodipodi:docname="EmbeddedIDE_02.svg"
   inkscape:export-filename="/home/martin/Proyectos/git/martinribelotta/embedded_ide-ng/resources/images/screens/EmbeddedIDE_02.png"
   inkscape:export-xdpi="90"
   inkscape:export-ydpi="90">
  <defs
     id="defs4345">
    <style
       id="current-color-scheme"
       type="text/css">
      .ColorScheme-Text {
        color:#4d4d4d;
      }
      </style>
    <style
       id="current-color-scheme-8"
       type="text/css">
      .ColorScheme-Text {
        color:#4d4d4d;
      }
      </style>
    <style
       id="current-color-scheme-6"
       type="text/css">
      .ColorScheme-Text {
        color:#4d4d4d;
      }
      </style>
    <style
       id="current-color-scheme-7"
       type="text/css">
      .ColorScheme-Text {
        color:#4d4d4d;
      }
      </style>
  </defs>
  <sodipodi:namedview
     id="base"
     pagecolor="#ffffff"
     bordercolor="#666666"
     borderopacity="1.0"
     inkscape:pageopacity="0.0"
     inkscape:pageshadow="2"
     inkscape:zoom="1.4"
     inkscape:cx="247.67357"
     inkscape:cy="126.27149"
     inkscape:document-units="px"
     inkscape:current-layer="layer1"
     showgrid="false"
     inkscape:window-width="1366"
     inkscape:window-height="703"
     inkscape:window-x="0"
     inkscape:window-y="0"
     inkscape:window-maximized="1"
     units="px"
     fit-margin-left="30"
     fit-margin-right="30"
     fit-margin-top="10"
     fit-margin-bottom="10" />
  <metadata
     id="metadata4348">
    <rdf:RDF>
      <cc:Work
         rdf:about="">
        <dc:format>image/svg+xml</dc:format>
        <dc:type
           rdf:resource="http://purl.org/dc/dcmitype/StillImage" />
        <dc:title></dc:title>
      </cc:Work>
    </rdf:RDF>
  </metadata>
  <g
     inkscape:label="Capa 1"
     inkscape:groupmode="layer"
     id="layer1"
     transform="translate(-5.234892,-314.08791)">
    <path
       style="fill:#b3b3b3;fill-rule:evenodd;stroke:#c0c0c0;stroke-width:1.19749868px;stroke-linecap:butt;stroke-linejoin:miter;stroke-opacity:1"
       d="m 35.234892,444.00457 367.239728,0"
       id="path5337-8-5"
       inkscape:connector-curvature="0"
       sodipodi:nodetypes="cc" />
    <flowRoot
       xml:space="preserve"
       id="flowRoot4430"
       style="font-style:normal;font-weight:normal;font-size:40px;line-height:125%;font-family:sans-serif;letter-spacing:0px;word-spacing:0px;fill:#000000;fill-opacity:1;stroke:none;stroke-width:1px;stroke-linecap:butt;stroke-linejoin:miter;stroke-opacity:1"><flowRegion
         id="flowRegion4432"><rect
           id="rect4434"
           width="960"
           height="102.85714"
           x="-748.57141"
           y="83.790779" /></flowRegion><flowPara
         id="flowPara4436" /></flowRoot>    <text
       xml:space="preserve"
       style="font-style:normal;font-weight:normal;font-size:12.5px;line-height:125%;font-family:sans-serif;letter-spacing:0px;word-spacing:0px;fill:#999999;fill-opacity:1;stroke:none;stroke-width:1px;stroke-linecap:butt;stroke-linejoin:miter;stroke-opacity:1"
       x="561.50189"
       y="542.19244"
       id="text4990"
       sodipodi:linespacing="125%"><tspan
         sodipodi:role="line"
         x="561.50189"
         y="542.19244"
         style="font-style:normal;font-variant:normal;font-weight:600;font-stretch:normal;font-size:17.5px;font-family:FreeSans;-inkscape-font-specification:'FreeSans Semi-Bold';fill:#999999"
         id="tspan5030" /></text>
    <g
       id="g6352">
      <text
         sodipodi:linespacing="125%"
         id="text5331-0"
         y="433.60336"
         x="69.567123"
         style="font-style:normal;font-weight:normal;font-size:12.5px;line-height:125%;font-family:sans-serif;letter-spacing:0px;word-spacing:0px;fill:#999999;fill-opacity:1;stroke:none;stroke-width:1px;stroke-linecap:butt;stroke-linejoin:miter;stroke-opacity:1"
         xml:space="preserve"><tspan
           id="tspan5333-7"
           style="font-style:normal;font-variant:normal;font-weight:normal;font-stretch:normal;font-family:FreeSans;-inkscape-font-specification:'FreeSans Semi-Bold';fill:#999999"
           y="433.60336"
           x="69.567123"
           sodipodi:role="line"><tspan
             dx="0 0 0 0 0 0 0 0 0 0 0 0 0 0 0 0 0"
             dy="0 0 0 0 0 0 0 0 0 0 0 0 0 0 0 0 0"
             id="tspan5335-3"
             style="font-style:normal;font-variant:normal;font-weight:600;font-stretch:normal;font-size:17.5px;font-family:FreeSans;-inkscape-font-specification:'FreeSans Semi-Bold';fill:#999999">No files are open</tspan></tspan></text>
      <text
         xml:space="preserve"
         style="font-style:normal;font-weight:normal;font-size:12.5px;line-height:125%;font-family:sans-serif;letter-spacing:0px;word-spacing:0px;fill:#999999;fill-opacity:1;stroke:none;stroke-width:1px;stroke-linecap:butt;stroke-linejoin:miter;stroke-opacity:1"
         x="70.592125"
         y="459.21793"
         id="text5339-2-3"
         sodipodi:linespacing="125%"><tspan
           sodipodi:role="line"
           x="70.592125"
           y="459.21793"
           style="font-style:normal;font-variant:normal;font-weight:600;font-stretch:normal;font-family:FreeSans;-inkscape-font-specification:'FreeSans Semi-Bold';fill:#999999"
           id="tspan8611-2">Text editor shortcuts</tspan></text>
      <g
         transform="translate(2.4864313,0)"
         id="g6212">
        <g
           id="g4687-4-1"
           transform="matrix(5.3249364,0,0,5.3249364,171.10022,-1168.8684)">
          <rect
             y="281.92212"
             x="1.8948874"
             height="13.212554"
             width="13.212537"
             id="rect4491-6-8-8"
             style="fill:#e6e6e6;fill-opacity:1;stroke:none;stroke-width:0.32180366;stroke-opacity:1" />
          <path
             sodipodi:nodetypes="cccc"
             inkscape:connector-curvature="0"
             id="rect4491-1-1-1-6"
             d="m 15.107424,281.92213 0,13.21255 -13.2125367,0 z"
             style="fill:#999999;fill-opacity:1;stroke:none;stroke-width:0.32180366;stroke-opacity:1" />
          <path
             inkscape:connector-curvature="0"
             id="path4509-8-6-4"
             d="m 8.5011557,283.75351 a 4.7749194,4.7749194 0 0 0 -4.774888,4.77489 4.7749194,4.7749194 0 0 0 4.774888,4.77489 4.7749194,4.7749194 0 0 0 4.7748883,-4.77489 4.7749194,4.7749194 0 0 0 -4.7748883,-4.77489 z m 0,1.95598 a 2.8189283,2.8189283 0 0 1 2.8189263,2.81891 2.8189283,2.8189283 0 0 1 -2.8189263,2.81893 2.8189283,2.8189283 0 0 1 -2.818925,-2.81893 2.8189283,2.8189283 0 0 1 2.818925,-2.81891 z"
             style="fill:#fffff5;fill-opacity:1;stroke:none;stroke-width:0.32180366;stroke-opacity:1" />
          <path
             sodipodi:nodetypes="cccc"
             inkscape:connector-curvature="0"
             id="rect4491-1-8-7-8-3"
             d="m 15.107424,281.92213 0,13.21255 -6.6062688,-6.60627 z"
             style="fill:#b3b3b3;fill-opacity:1;stroke:none;stroke-width:0.32180366;stroke-opacity:1" />
          <g
             style="fill:#3f3f3f;fill-opacity:1"
             id="g5527-5-4">
            <g
               id="g4643-9-2-7"
               transform="matrix(1.2162659,0,0,1.2162659,-1.4675659,-62.056224)"
               style="fill:#3f3f3f;fill-opacity:1">
              <rect
                 y="281.53955"
                 x="4.0786195"
                 height="1.275545"
                 width="0.7883302"
                 id="rect4580-20-1-7"
                 style="fill:#cccccc;fill-opacity:1;stroke:none;stroke-width:0.26458332;stroke-opacity:1" />
              <rect
                 y="281.53955"
                 x="5.319747"
                 height="1.275545"
                 width="0.7883302"
                 id="rect4580-5-2-9-0"
                 style="fill:#cccccc;fill-opacity:1;stroke:none;stroke-width:0.26458332;stroke-opacity:1" />
              <rect
                 y="281.53955"
                 x="6.5608759"
                 height="1.275545"
                 width="0.7883302"
                 id="rect4580-6-3-9-7"
                 style="fill:#cccccc;fill-opacity:1;stroke:none;stroke-width:0.26458332;stroke-opacity:1" />
              <rect
                 y="281.53955"
                 x="7.8020034"
                 height="1.275545"
                 width="0.7883302"
                 id="rect4580-8-7-6-4"
                 style="fill:#cccccc;fill-opacity:1;stroke:none;stroke-width:0.26458332;stroke-opacity:1" />
              <rect
                 y="281.53955"
                 x="9.0431328"
                 height="1.275545"
                 width="0.7883302"
                 id="rect4580-9-5-0-5"
                 style="fill:#cccccc;fill-opacity:1;stroke:none;stroke-width:0.26458332;stroke-opacity:1" />
              <rect
                 y="281.53955"
                 x="10.28426"
                 height="1.275545"
                 width="0.7883302"
                 id="rect4580-2-92-6-3"
                 style="fill:#cccccc;fill-opacity:1;stroke:none;stroke-width:0.26458332;stroke-opacity:1" />
              <rect
                 y="281.53955"
                 x="11.525389"
                 height="1.275545"
                 width="0.7883302"
                 id="rect4580-3-28-4-0"
                 style="fill:#cccccc;fill-opacity:1;stroke:none;stroke-width:0.26458332;stroke-opacity:1" />
            </g>
            <g
               id="g4643-6-9-9-7"
               transform="matrix(1.2162659,0,0,1.2162659,-1.4675659,-47.292271)"
               style="fill:#3f3f3f;fill-opacity:1">
              <rect
                 y="281.53955"
                 x="4.0786195"
                 height="1.275545"
                 width="0.7883302"
                 id="rect4580-0-7-9-2"
                 style="fill:#cccccc;fill-opacity:1;stroke:none;stroke-width:0.26458332;stroke-opacity:1" />
              <rect
                 y="281.53955"
                 x="5.319747"
                 height="1.275545"
                 width="0.7883302"
                 id="rect4580-5-7-3-0-9"
                 style="fill:#cccccc;fill-opacity:1;stroke:none;stroke-width:0.26458332;stroke-opacity:1" />
              <rect
                 y="281.53955"
                 x="6.5608759"
                 height="1.275545"
                 width="0.7883302"
                 id="rect4580-6-1-6-8-9"
                 style="fill:#cccccc;fill-opacity:1;stroke:none;stroke-width:0.26458332;stroke-opacity:1" />
              <rect
                 y="281.53955"
                 x="7.8020034"
                 height="1.275545"
                 width="0.7883302"
                 id="rect4580-8-0-1-9-3"
                 style="fill:#cccccc;fill-opacity:1;stroke:none;stroke-width:0.26458332;stroke-opacity:1" />
              <rect
                 y="281.53955"
                 x="9.0431328"
                 height="1.275545"
                 width="0.7883302"
                 id="rect4580-9-9-2-3-0"
                 style="fill:#cccccc;fill-opacity:1;stroke:none;stroke-width:0.26458332;stroke-opacity:1" />
              <rect
                 y="281.53955"
                 x="10.28426"
                 height="1.275545"
                 width="0.7883302"
                 id="rect4580-2-9-9-1-2"
                 style="fill:#cccccc;fill-opacity:1;stroke:none;stroke-width:0.26458332;stroke-opacity:1" />
              <rect
                 y="281.53955"
                 x="11.525389"
                 height="1.275545"
                 width="0.7883302"
                 id="rect4580-3-1-3-4-7"
                 style="fill:#cccccc;fill-opacity:1;stroke:none;stroke-width:0.26458332;stroke-opacity:1" />
            </g>
            <g
               id="g4643-0-19-8-9"
               transform="matrix(0,1.2162659,-1.2162659,0,359.08578,278.55969)"
               style="fill:#3f3f3f;fill-opacity:1">
              <rect
                 y="281.53955"
                 x="4.0786195"
                 height="1.275545"
                 width="0.7883302"
                 id="rect4580-7-4-9-9"
                 style="fill:#cccccc;fill-opacity:1;stroke:none;stroke-width:0.26458332;stroke-opacity:1" />
              <rect
                 y="281.53955"
                 x="5.319747"
                 height="1.275545"
                 width="0.7883302"
                 id="rect4580-5-4-78-6-5"
                 style="fill:#cccccc;fill-opacity:1;stroke:none;stroke-width:0.26458332;stroke-opacity:1" />
              <rect
                 y="281.53955"
                 x="6.5608759"
                 height="1.275545"
                 width="0.7883302"
                 id="rect4580-6-9-45-7-2"
                 style="fill:#cccccc;fill-opacity:1;stroke:none;stroke-width:0.26458332;stroke-opacity:1" />
              <rect
                 y="281.53955"
                 x="7.8020034"
                 height="1.275545"
                 width="0.7883302"
                 id="rect4580-8-2-0-7-0"
                 style="fill:#cccccc;fill-opacity:1;stroke:none;stroke-width:0.26458332;stroke-opacity:1" />
              <rect
                 y="281.53955"
                 x="9.0431328"
                 height="1.275545"
                 width="0.7883302"
                 id="rect4580-9-3-3-3-8"
                 style="fill:#cccccc;fill-opacity:1;stroke:none;stroke-width:0.26458332;stroke-opacity:1" />
              <rect
                 y="281.53955"
                 x="10.28426"
                 height="1.275545"
                 width="0.7883302"
                 id="rect4580-2-3-6-7-3"
                 style="fill:#cccccc;fill-opacity:1;stroke:none;stroke-width:0.26458332;stroke-opacity:1" />
              <rect
                 y="281.53955"
                 x="11.525389"
                 height="1.275545"
                 width="0.7883302"
                 id="rect4580-3-2-1-1-5"
                 style="fill:#cccccc;fill-opacity:1;stroke:none;stroke-width:0.26458332;stroke-opacity:1" />
            </g>
            <g
               id="g4643-0-1-0-2-9"
               transform="matrix(0,1.2162659,-1.2162659,0,344.32184,278.55967)"
               style="fill:#3f3f3f;fill-opacity:1">
              <rect
                 y="281.53955"
                 x="4.0786195"
                 height="1.275545"
                 width="0.7883302"
                 id="rect4580-7-3-6-2-6"
                 style="fill:#b3b3b3;fill-opacity:1;stroke:none;stroke-width:0.26458332;stroke-opacity:1" />
              <rect
                 y="281.53955"
                 x="5.319747"
                 height="1.275545"
                 width="0.7883302"
                 id="rect4580-5-4-7-3-1-5"
                 style="fill:#cccccc;fill-opacity:1;stroke:none;stroke-width:0.26458332;stroke-opacity:1" />
              <rect
                 y="281.53955"
                 x="6.5608759"
                 height="1.275545"
                 width="0.7883302"
                 id="rect4580-6-9-4-2-5-6"
                 style="fill:#cccccc;fill-opacity:1;stroke:none;stroke-width:0.26458332;stroke-opacity:1" />
              <rect
                 y="281.53955"
                 x="7.8020034"
                 height="1.275545"
                 width="0.7883302"
                 id="rect4580-8-2-6-0-0-3"
                 style="fill:#cccccc;fill-opacity:1;stroke:none;stroke-width:0.26458332;stroke-opacity:1" />
              <rect
                 y="281.53955"
                 x="9.0431328"
                 height="1.275545"
                 width="0.7883302"
                 id="rect4580-9-3-1-6-9-0"
                 style="fill:#cccccc;fill-opacity:1;stroke:none;stroke-width:0.26458332;stroke-opacity:1" />
              <rect
                 y="281.53955"
                 x="10.28426"
                 height="1.275545"
                 width="0.7883302"
                 id="rect4580-2-3-0-1-0-2"
                 style="fill:#cccccc;fill-opacity:1;stroke:none;stroke-width:0.26458332;stroke-opacity:1" />
              <rect
                 y="281.53955"
                 x="11.525389"
                 height="1.275545"
                 width="0.7883302"
                 id="rect4580-3-2-8-5-4-0"
                 style="fill:#cccccc;fill-opacity:1;stroke:none;stroke-width:0.26458332;stroke-opacity:1" />
            </g>
          </g>
          <path
             inkscape:connector-curvature="0"
             id="rect4797-5-0-7"
             d="m 7.914481,286.97515 0,0.9673 -0.966345,0 0,1.17287 0.966345,0 0,0.96635 1.17287,0 0,-0.96635 0.967305,0 0,-1.17287 -0.967305,0 0,-0.9673 z"
             style="fill:#ffffff;fill-opacity:0.98431373;stroke:none;stroke-width:0.49181765;stroke-opacity:1" />
          <path
             inkscape:connector-curvature="0"
             id="rect4797-9-4-1-4"
             d="m 11.803451,286.97515 0,0.9673 -0.966344,0 0,1.17287 0.966344,0 0,0.96635 1.172871,0 0,-0.96635 0.967305,0 0,-1.17287 -0.967305,0 0,-0.9673 z"
             style="fill:#ffffff;fill-opacity:0.98431373;stroke:none;stroke-width:0.49181765;stroke-opacity:1" />
        </g>
        <g
           id="g6112"
           transform="translate(-50.209497,-12.142857)">
          <g
             transform="translate(142.43467,-13.746925)"
             id="g5166">
            <g
               id="g11910"
               transform="matrix(0.66974665,0,0,0.66974665,-279.23522,165.26609)"
               style="fill:#666666">
              <path
                 id="path11510"
                 class="ColorScheme-Text"
                 d="m 440.3325,676.37126 c -2.24816,0 -4.05804,1.80988 -4.05804,4.05804 0,2.24815 1.80988,4.05803 4.05804,4.05803 1.00179,0 1.91443,-0.36162 2.62081,-0.95903 l 3.66439,3.66439 0.47819,-0.47819 -3.66439,-3.66439 c 0.5974,-0.70638 0.95903,-1.61901 0.95903,-2.62081 0,-2.24816 -1.80988,-4.05804 -4.05803,-4.05804 z m 0,0.67634 c 1.87346,0 3.38169,1.50824 3.38169,3.3817 0,1.87346 -1.50823,3.38169 -3.38169,3.38169 -1.87347,0 -3.3817,-1.50823 -3.3817,-3.38169 0,-1.87346 1.50823,-3.3817 3.3817,-3.3817 z"
                 style="color:#4d4d4d;fill:#666666;fill-opacity:1;stroke:none"
                 inkscape:connector-curvature="0" />
              <g
                 transform="matrix(0.76785714,0,0,0.76785714,116.58961,156.85576)"
                 id="g11905"
                 style="fill:#666666">
                <rect
                   style="fill:#666666;fill-opacity:1;stroke:none;stroke-width:5.5999999;stroke-miterlimit:4;stroke-dasharray:none;stroke-opacity:1"
                   id="rect11899"
                   width="1.25"
                   height="10"
                   x="413.57144"
                   y="674.14789" />
                <rect
                   y="-416.16074"
                   x="682.89789"
                   height="3.9285715"
                   width="1.25"
                   id="rect11901"
                   style="fill:#666666;fill-opacity:1;stroke:none;stroke-width:5.5999999;stroke-miterlimit:4;stroke-dasharray:none;stroke-opacity:1"
                   transform="matrix(0,1,-1,0,0,0)" />
                <rect
                   transform="matrix(0,1,-1,0,0,0)"
                   style="fill:#666666;fill-opacity:1;stroke:none;stroke-width:5.5999999;stroke-miterlimit:4;stroke-dasharray:none;stroke-opacity:1"
                   id="rect11903"
                   width="1.25"
                   height="3.9285715"
                   x="674.14789"
                   y="-416.16074" />
              </g>
            </g>
            <text
               sodipodi:linespacing="125%"
               id="text5339-2-7-2-6"
               y="625.74982"
               x="27.501753"
               style="font-style:normal;font-weight:normal;font-size:12.5px;line-height:125%;font-family:sans-serif;letter-spacing:0px;word-spacing:0px;fill:#999999;fill-opacity:1;stroke:none;stroke-width:1px;stroke-linecap:butt;stroke-linejoin:miter;stroke-opacity:1"
               xml:space="preserve"><tspan
                 id="tspan8611-6-0-8"
                 style="font-style:normal;font-variant:normal;font-weight:normal;font-stretch:normal;font-family:FreeSans;-inkscape-font-specification:'FreeSans Semi-Bold';fill:#999999"
                 y="625.74982"
                 x="27.501753"
                 sodipodi:role="line">Find symbol under cursor <tspan
   id="tspan7229-2-6-8"
   style="fill:#0000ff">Ctrl+&lt;Enter&gt;</tspan></tspan></text>
          </g>
          <g
             transform="translate(143.21235,-62.208586)"
             id="g5177">
            <g
               id="g11954"
               transform="matrix(0.64769439,0,0,0.64769439,-285.7286,167.69816)"
               style="fill:#666666">
              <g
                 id="g11917"
                 transform="translate(23.571428,43.571428)"
                 style="fill:#666666">
                <g
                   transform="matrix(0.76785714,0,0,0.76785714,116.58961,156.85576)"
                   id="g11921"
                   style="fill:#666666">
                  <rect
                     style="fill:#666666;fill-opacity:1;stroke:none;stroke-width:5.5999999;stroke-miterlimit:4;stroke-dasharray:none;stroke-opacity:1"
                     id="rect11923"
                     width="1.25"
                     height="10"
                     x="413.57144"
                     y="674.14789" />
                  <rect
                     y="-416.16074"
                     x="682.89789"
                     height="3.9285715"
                     width="1.25"
                     id="rect11925"
                     style="fill:#666666;fill-opacity:1;stroke:none;stroke-width:5.5999999;stroke-miterlimit:4;stroke-dasharray:none;stroke-opacity:1"
                     transform="matrix(0,1,-1,0,0,0)" />
                  <rect
                     transform="matrix(0,1,-1,0,0,0)"
                     style="fill:#666666;fill-opacity:1;stroke:none;stroke-width:5.5999999;stroke-miterlimit:4;stroke-dasharray:none;stroke-opacity:1"
                     id="rect11927"
                     width="1.25"
                     height="3.9285715"
                     x="674.14789"
                     y="-416.16074" />
                </g>
              </g>
              <rect
                 y="722.59082"
                 x="460.20224"
                 height="8.0906477"
                 width="0.79793084"
                 id="rect11933"
                 style="fill:#666666;fill-opacity:1;stroke:none;stroke-width:5.5999999;stroke-miterlimit:4;stroke-dasharray:none;stroke-opacity:1" />
              <rect
                 transform="matrix(0,1,-1,0,0,0)"
                 style="fill:#666666;fill-opacity:1;stroke:none;stroke-width:5.5999999;stroke-miterlimit:4;stroke-dasharray:none;stroke-opacity:1"
                 id="rect11935"
                 width="0.79793084"
                 height="12.676763"
                 x="729.88354"
                 y="-473.13748" />
              <rect
                 y="-473.13748"
                 x="722.59082"
                 height="12.676763"
                 width="0.79793084"
                 id="rect11937"
                 style="fill:#666666;fill-opacity:1;stroke:none;stroke-width:5.5999999;stroke-miterlimit:4;stroke-dasharray:none;stroke-opacity:1"
                 transform="matrix(0,1,-1,0,0,0)" />
              <rect
                 style="fill:#666666;fill-opacity:1;stroke:none;stroke-width:5.5999999;stroke-miterlimit:4;stroke-dasharray:none;stroke-opacity:1"
                 id="rect11946"
                 width="0.79793084"
                 height="8.0906477"
                 x="472.74646"
                 y="722.59082" />
              <rect
                 transform="matrix(0,1,-1,0,0,0)"
                 style="fill:#666666;fill-opacity:1;stroke:none;stroke-width:5.5999999;stroke-miterlimit:4;stroke-dasharray:none;stroke-opacity:1"
                 id="rect11948"
                 width="0.79793084"
                 height="9.4108124"
                 x="724.52069"
                 y="-471.50452" />
              <rect
                 y="-471.50452"
                 x="726.18335"
                 height="9.4108124"
                 width="0.79793084"
                 id="rect11950"
                 style="fill:#666666;fill-opacity:1;stroke:none;stroke-width:5.5999999;stroke-miterlimit:4;stroke-dasharray:none;stroke-opacity:1"
                 transform="matrix(0,1,-1,0,0,0)" />
              <rect
                 transform="matrix(0,1,-1,0,0,0)"
                 style="fill:#666666;fill-opacity:1;stroke:none;stroke-width:5.5999999;stroke-miterlimit:4;stroke-dasharray:none;stroke-opacity:1"
                 id="rect11952"
                 width="0.79793084"
                 height="9.4108124"
                 x="727.84601"
                 y="-471.50452" />
            </g>
            <text
               sodipodi:linespacing="125%"
               id="text5339-2-7-1-4"
               y="641.36188"
               x="27.501753"
               style="font-style:normal;font-weight:normal;font-size:12.5px;line-height:125%;font-family:sans-serif;letter-spacing:0px;word-spacing:0px;fill:#999999;fill-opacity:1;stroke:none;stroke-width:1px;stroke-linecap:butt;stroke-linejoin:miter;stroke-opacity:1"
               xml:space="preserve"><tspan
                 id="tspan8611-6-5-3"
                 style="font-style:normal;font-variant:normal;font-weight:normal;font-stretch:normal;font-family:FreeSans;-inkscape-font-specification:'FreeSans Semi-Bold';fill:#999999"
                 y="641.36188"
                 x="27.501753"
                 sodipodi:role="line">Autocomplete <tspan
   id="tspan7229-2-5-1"
   style="fill:#0000ff">Ctrl+&lt;Space&gt;</tspan></tspan></text>
          </g>
          <g
             transform="translate(142.28454,-60.176995)"
             id="g5195">
            <g
               id="g11839"
               transform="matrix(0.45283404,0,0,0.45283404,-157.92433,361.27941)"
               style="fill:#666666">
              <g
                 inkscape:label="Capa 1"
                 id="layer1-0"
                 transform="matrix(0.1719937,0,0,0.1719937,371.35691,475.01484)"
                 style="fill:#666666">
                <text
                   xml:space="preserve"
                   style="font-style:normal;font-weight:normal;font-size:40px;line-height:125%;font-family:sans-serif;letter-spacing:0px;word-spacing:0px;fill:#666666;fill-opacity:1;stroke:none;stroke-width:1px;stroke-linecap:butt;stroke-linejoin:miter;stroke-opacity:1"
                   x="24.146521"
                   y="1018.135"
                   id="text3374"
                   sodipodi:linespacing="125%"><tspan
                     sodipodi:role="line"
                     id="tspan3376"
                     x="24.146521"
                     y="1018.135"
                     style="font-size:70px;fill:#666666;fill-opacity:1">{}</tspan></text>
              </g>
              <path
                 style="fill:#666666"
                 sodipodi:nodetypes="ccccccccccccccc"
                 inkscape:connector-curvature="0"
                 id="path11814"
                 d="m 373.03572,631.07633 0,24 19.81936,0 0,-1 -18.81936,0 0,-22 11,0 0,7 7,0 0,16.00033 1,0 0,-17.00033 -7,-7 -1,0 z" />
            </g>
            <text
               sodipodi:linespacing="125%"
               id="text5339-2-7-2-4-4"
               y="656.97382"
               x="27.501753"
               style="font-style:normal;font-weight:normal;font-size:12.5px;line-height:125%;font-family:sans-serif;letter-spacing:0px;word-spacing:0px;fill:#999999;fill-opacity:1;stroke:none;stroke-width:1px;stroke-linecap:butt;stroke-linejoin:miter;stroke-opacity:1"
               xml:space="preserve"><tspan
                 id="tspan8611-6-0-7-9"
                 style="font-style:normal;font-variant:normal;font-weight:normal;font-stretch:normal;font-family:FreeSans;-inkscape-font-specification:'FreeSans Semi-Bold';fill:#999999"
                 y="656.97382"
                 x="27.501753"
                 sodipodi:role="line">Autoformat selection <tspan
   id="tspan7229-2-6-6-2"
   style="fill:#0000ff">Ctrl+I</tspan></tspan></text>
          </g>
        </g>
        <g
           id="g6150"
           transform="translate(-2.4864284,0)">
          <g
             transform="translate(60.873845,-2.0203051)"
             id="g5211">
            <g
               id="g5104">
              <path
                 inkscape:connector-curvature="0"
                 style="color:#4d4d4d;fill:#666666;fill-opacity:1;stroke:none"
                 d="m 10.093277,475.32028 0,10.86802 2.26417,0 6.33968,0 2.26417,0 0,-8.15101 -0.45284,-0.45284 -1.81133,-1.81133 -0.45284,-0.45284 -0.45283,0 -4.98118,0 -2.717,0 z m 0.45283,0.45284 2.26417,0 0,3.62267 4.98118,0 0,-3.62267 0.26533,0 2.45167,2.45167 0,7.51068 -1.81133,0 0,-3.62268 -6.33968,0 0,3.62268 -1.81134,0 0,-9.96235 z m 2.71701,0 2.717,0 0,3.16983 -2.717,0 0,-3.16983 z m -0.45284,6.79251 5.43401,0 0,3.16984 -5.43401,0 0,-3.16984 z"
                 id="path60"
                 class="ColorScheme-Text" />
              <text
                 xml:space="preserve"
                 style="font-style:normal;font-weight:normal;font-size:12.5px;line-height:125%;font-family:sans-serif;letter-spacing:0px;word-spacing:0px;fill:#999999;fill-opacity:1;stroke:none;stroke-width:1px;stroke-linecap:butt;stroke-linejoin:miter;stroke-opacity:1"
                 x="27.501753"
                 y="485.24179"
                 id="text5339-2-7"
                 sodipodi:linespacing="125%"><tspan
                   sodipodi:role="line"
                   x="27.501753"
                   y="485.24179"
                   style="font-style:normal;font-variant:normal;font-weight:normal;font-stretch:normal;font-family:FreeSans;-inkscape-font-specification:'FreeSans Semi-Bold';fill:#999999"
                   id="tspan8611-6">Save file <tspan
   style="fill:#0000ff"
   id="tspan7229-2">Ctrl+S</tspan></tspan></text>
            </g>
            <g
               id="g5110"
               transform="translate(0,0.04208374)">
              <path
                 inkscape:connector-curvature="0"
                 style="color:#4d4d4d;fill:#666666;fill-opacity:1;stroke:none"
                 d="m 15.527287,490.9323 a 5.4340085,5.4340085 0 0 0 -2.75503,0.75708 l 2.43487,2.4354 0.32016,-0.32151 -1.99428,-1.99429 a 4.9811744,4.9811744 0 0 1 1.99428,-0.42385 4.9811744,4.9811744 0 0 1 4.98117,4.98118 4.9811744,4.9811744 0 0 1 -0.63591,2.42336 l 0.33161,0.32987 a 5.4340085,5.4340085 0 0 0 0.75714,-2.75323 5.4340085,5.4340085 0 0 0 -5.43401,-5.43401 m -4.67693,2.67897 a 5.4340085,5.4340085 0 0 0 -0.75708,2.75504 5.4340085,5.4340085 0 0 0 5.43401,5.434 5.4340085,5.4340085 0 0 0 2.75503,-0.75707 l -2.43488,-2.43586 -0.32015,0.32016 1.99519,1.99428 a 4.9811744,4.9811744 0 0 1 -1.99519,0.42566 4.9811744,4.9811744 0 0 1 -4.98118,-4.98117 4.9811744,4.9811744 0 0 1 0.63592,-2.42337 z"
                 class="ColorScheme-Text"
                 id="path11744" />
              <text
                 xml:space="preserve"
                 style="font-style:normal;font-weight:normal;font-size:12.5px;line-height:125%;font-family:sans-serif;letter-spacing:0px;word-spacing:0px;fill:#999999;fill-opacity:1;stroke:none;stroke-width:1px;stroke-linecap:butt;stroke-linejoin:miter;stroke-opacity:1"
                 x="27.501753"
                 y="500.85379"
                 id="text5339-2-7-2"
                 sodipodi:linespacing="125%"><tspan
                   sodipodi:role="line"
                   x="27.501753"
                   y="500.85379"
                   style="font-style:normal;font-variant:normal;font-weight:normal;font-stretch:normal;font-family:FreeSans;-inkscape-font-specification:'FreeSans Semi-Bold';fill:#999999"
                   id="tspan8611-6-0">Refresh file <tspan
   style="fill:#0000ff"
   id="tspan7229-2-6">Ctrl+R</tspan></tspan></text>
            </g>
            <g
               id="g5116"
               transform="translate(0,0.08418274)">
              <g
                 style="fill:#666666"
                 transform="matrix(0.45283404,0,0,0.45283404,8.281942,504.73288)"
                 id="g4489">
                <path
                   style="fill:#666666"
                   d="m 6,4 0,24 19.819367,0 0,-1 L 7,27 7,5 l 11,0 0,7 7,0 0,16.000334 1,0 L 26,11 19,4 18,4 Z"
                   id="path4485"
                   inkscape:connector-curvature="0"
                   sodipodi:nodetypes="ccccccccccccccc" />
                <path
                   d="m 12,15.270429 3.293,3.293 -3.293,3.293 c 0.013,0.025 0.707,0.707 0.707,0.707 l 3.293,-3.293 3.293,3.293 0.707,-0.707 -3.293,-3.293 3.293,-3.293 -0.707,-0.707 -3.293,3.293 -3.293,-3.293 z"
                   id="path4487"
                   inkscape:connector-curvature="0"
                   style="color:#000000;color-interpolation:sRGB;color-interpolation-filters:linearRGB;fill:#666666;fill-rule:evenodd;color-rendering:auto;image-rendering:auto;shape-rendering:auto;text-rendering:auto" />
              </g>
              <text
                 xml:space="preserve"
                 style="font-style:normal;font-weight:normal;font-size:12.5px;line-height:125%;font-family:sans-serif;letter-spacing:0px;word-spacing:0px;fill:#999999;fill-opacity:1;stroke:none;stroke-width:1px;stroke-linecap:butt;stroke-linejoin:miter;stroke-opacity:1"
                 x="27.501753"
                 y="516.46582"
                 id="text5339-2-7-1"
                 sodipodi:linespacing="125%"><tspan
                   sodipodi:role="line"
                   x="27.501753"
                   y="516.46582"
                   style="font-style:normal;font-variant:normal;font-weight:normal;font-stretch:normal;font-family:FreeSans;-inkscape-font-specification:'FreeSans Semi-Bold';fill:#999999"
                   id="tspan8611-6-5">Close file <tspan
   style="fill:#0000ff"
   id="tspan7229-2-5">Ctrl+Shift+X</tspan></tspan></text>
            </g>
            <g
               id="g5124"
               transform="translate(0,0.12626648)">
              <path
                 inkscape:connector-curvature="0"
                 style="color:#4d4d4d;fill:#666666;fill-opacity:1;stroke:none"
                 d="m 14.102952,523.20728 -1.8042,1.80418 -0.11337,0.11337 0.11337,0.11337 1.8042,1.8042 0.38738,-0.38737 -1.25631,-1.25631 1.25202,0 0.55218,0 0.26966,0 c 1.66943,0 3.01342,1.34398 3.01342,3.01342 0,1.66942 -1.34399,3.01341 -3.01342,3.01341 l -0.82184,0 0,0.54789 0.82184,0 c 1.97296,0 3.56131,-1.58835 3.56131,-3.5613 0,-1.97297 -1.58835,-3.56131 -3.56131,-3.56131 l -0.26966,0 -0.55218,0 -1.25202,0 1.25631,-1.25631 -0.38738,-0.38736"
                 class="ColorScheme-Text"
                 id="path10883" />
              <text
                 xml:space="preserve"
                 style="font-style:normal;font-weight:normal;font-size:12.5px;line-height:125%;font-family:sans-serif;letter-spacing:0px;word-spacing:0px;fill:#999999;fill-opacity:1;stroke:none;stroke-width:1px;stroke-linecap:butt;stroke-linejoin:miter;stroke-opacity:1"
                 x="27.501753"
                 y="532.07782"
                 id="text5339-2-7-2-4"
                 sodipodi:linespacing="125%"><tspan
                   sodipodi:role="line"
                   x="27.501753"
                   y="532.07782"
                   style="font-style:normal;font-variant:normal;font-weight:normal;font-stretch:normal;font-family:FreeSans;-inkscape-font-specification:'FreeSans Semi-Bold';fill:#999999"
                   id="tspan8611-6-0-7">Undo <tspan
   style="fill:#0000ff"
   id="tspan7229-2-6-6">Ctrl+Z</tspan></tspan></text>
            </g>
            <g
               id="g5130"
               transform="translate(0,0.16835022)">
              <path
                 inkscape:connector-curvature="0"
                 style="color:#4d4d4d;fill:#666666;fill-opacity:1;stroke:none"
                 d="m 16.951627,538.81917 -0.38738,0.38736 1.2563,1.25631 -1.25202,0 -0.55217,0 -0.26966,0 c -1.97297,0 -3.56131,1.58834 -3.56131,3.56131 0,1.97295 1.58834,3.5613 3.56131,3.5613 l 0.82183,0 0,-0.54789 -0.82183,0 c -1.66944,0 -3.01342,-1.34399 -3.01342,-3.01341 0,-1.66944 1.34398,-3.01342 3.01342,-3.01342 l 0.26966,0 0.55217,0 1.25202,0 -1.2563,1.25631 0.38738,0.38737 1.80419,-1.80419 0.11337,-0.11349 -0.11337,-0.11337 -1.80419,-1.80418"
                 class="ColorScheme-Text"
                 id="path10871" />
              <text
                 xml:space="preserve"
                 style="font-style:normal;font-weight:normal;font-size:12.5px;line-height:125%;font-family:sans-serif;letter-spacing:0px;word-spacing:0px;fill:#999999;fill-opacity:1;stroke:none;stroke-width:1px;stroke-linecap:butt;stroke-linejoin:miter;stroke-opacity:1"
                 x="27.501753"
                 y="547.68982"
                 id="text5339-2-7-5"
                 sodipodi:linespacing="125%"><tspan
                   sodipodi:role="line"
                   x="27.501753"
                   y="547.68982"
                   style="font-style:normal;font-variant:normal;font-weight:normal;font-stretch:normal;font-family:FreeSans;-inkscape-font-specification:'FreeSans Semi-Bold';fill:#999999"
                   id="tspan8611-6-6">Redo <tspan
   style="fill:#0000ff"
   id="tspan7229-2-9">Ctrl+Shift+Z</tspan></tspan></text>
            </g>
          </g>
          <g
             id="g6079">
            <g
               id="g5136"
               transform="translate(205.32565,-80.080298)">
              <g
                 style="fill:#666666"
                 transform="matrix(0.45283404,0,0,0.45283404,-188.81408,267.76912)"
                 id="g11887">
                <path
                   inkscape:connector-curvature="0"
                   style="color:#4d4d4d;fill:#666666;fill-opacity:1;stroke:none"
                   d="m 444.03825,641.14666 0,1.77678 14.21429,0 0,-1.77678 -14.21429,0 m 0,4.44196 0,1.77679 14.21429,0 0,-1.77679 -14.21429,0 m 0,4.44196 0,1.77679 14.21429,0 0,-1.77679 -14.21429,0"
                   class="ColorScheme-Text"
                   id="path11889" />
                <g
                   style="fill:#666666"
                   id="g11891"
                   transform="translate(68.214286,-0.35714287)">
                  <g
                     style="fill:#666666"
                     inkscape:label="Capa 1"
                     id="g11893"
                     transform="matrix(0.1719937,0,0,0.1719937,371.35691,475.01484)" />
                  <path
                     style="fill:#666666"
                     sodipodi:nodetypes="ccccccccccccccc"
                     inkscape:connector-curvature="0"
                     id="path11895"
                     d="m 373.03572,631.07633 0,24 19.81936,0 0,-1 -18.81936,0 0,-22 11,0 0,7 7,0 0,16.00033 1,0 0,-17.00033 -7,-7 -1,0 z" />
                </g>
              </g>
              <text
                 xml:space="preserve"
                 style="font-style:normal;font-weight:normal;font-size:12.5px;line-height:125%;font-family:sans-serif;letter-spacing:0px;word-spacing:0px;fill:#999999;fill-opacity:1;stroke:none;stroke-width:1px;stroke-linecap:butt;stroke-linejoin:miter;stroke-opacity:1"
                 x="27.501753"
                 y="563.30182"
                 id="text5339-2-7-2-3"
                 sodipodi:linespacing="125%"><tspan
                   sodipodi:role="line"
                   x="27.501753"
                   y="563.30182"
                   style="font-style:normal;font-variant:normal;font-weight:normal;font-stretch:normal;font-family:FreeSans;-inkscape-font-specification:'FreeSans Semi-Bold';fill:#999999"
                   id="tspan8611-6-0-74">Select all text <tspan
   style="fill:#0000ff"
   id="tspan7229-2-6-5">Ctrl+A</tspan></tspan></text>
            </g>
            <g
               id="g5146"
               transform="translate(205.32565,-81.093443)">
              <g
                 style="fill:#666666"
                 transform="matrix(0.38340248,0,0,0.38340248,-135.02323,310.94471)"
                 id="g11491">
                <path
                   id="path11481"
                   class="ColorScheme-Text"
                   d="m 380.71429,673.21935 0,24 4.59821,0 0.1116,-19.21429 11.57367,-0.23214 0.85938,-0.36607 -4.14286,-4.1875 -1,0 z m 1,1 11,0 0,3.59074 -7.41964,-0.008 -0.22322,18.41693 -3.35714,0 z"
                   style="color:#4d4d4d;fill:#666666;fill-opacity:1;stroke:none"
                   inkscape:connector-curvature="0"
                   sodipodi:nodetypes="cccccccccccccccc" />
                <path
                   inkscape:connector-curvature="0"
                   style="color:#4d4d4d;fill:#666666;fill-opacity:1;stroke:none"
                   d="m 384.625,677.21935 0,24 20,0 0,-17 -7,-7 -1,0 z m 1,1 11,0 0,7 7,0 0,15 -18,0 z"
                   class="ColorScheme-Text"
                   id="path11489" />
              </g>
              <text
                 xml:space="preserve"
                 style="font-style:normal;font-weight:normal;font-size:12.5px;line-height:125%;font-family:sans-serif;letter-spacing:0px;word-spacing:0px;fill:#999999;fill-opacity:1;stroke:none;stroke-width:1px;stroke-linecap:butt;stroke-linejoin:miter;stroke-opacity:1"
                 x="27.501753"
                 y="578.91382"
                 id="text5339-2-7-1-2"
                 sodipodi:linespacing="125%"><tspan
                   sodipodi:role="line"
                   x="27.501753"
                   y="578.91382"
                   style="font-style:normal;font-variant:normal;font-weight:normal;font-stretch:normal;font-family:FreeSans;-inkscape-font-specification:'FreeSans Semi-Bold';fill:#999999"
                   id="tspan8611-6-5-5">Copy text <tspan
   style="fill:#0000ff"
   id="tspan7229-2-5-4">Ctrl+C</tspan></tspan></text>
            </g>
            <g
               id="g5154"
               transform="translate(205.32565,-80.26174)">
              <path
                 inkscape:connector-curvature="0"
                 style="color:#4d4d4d;fill:#666666;fill-opacity:1;stroke:none"
                 d="m 12.994412,584.97258 0,1.26644 -1.26644,0 -0.63321,0 0,8.86505 0.63321,0 8.23184,0 0,-0.63321 0,-8.23184 -0.63321,0 -1.26644,0 0,-1.26644 -5.06575,0 z m -1.26644,1.89965 0.63322,0 0,1.26644 6.33218,0 0,-1.26644 0.63323,0 0,7.59863 -7.59863,0 0,-7.59863 z m 1.26644,1.89966 0,0.63322 5.06575,0 0,-0.63322 -5.06575,0 z m 0,1.89965 0,0.63323 3.79931,0 0,-0.63323 -3.79931,0 z m 0,1.89967 0,0.63321 1.89966,0 0,-0.63321 -1.89966,0 z"
                 class="ColorScheme-Text"
                 id="path10859" />
              <text
                 xml:space="preserve"
                 style="font-style:normal;font-weight:normal;font-size:12.5px;line-height:125%;font-family:sans-serif;letter-spacing:0px;word-spacing:0px;fill:#999999;fill-opacity:1;stroke:none;stroke-width:1px;stroke-linecap:butt;stroke-linejoin:miter;stroke-opacity:1"
                 x="27.501753"
                 y="594.52582"
                 id="text5339-2-7-2-4-7"
                 sodipodi:linespacing="125%"><tspan
                   sodipodi:role="line"
                   x="27.501753"
                   y="594.52582"
                   style="font-style:normal;font-variant:normal;font-weight:normal;font-stretch:normal;font-family:FreeSans;-inkscape-font-specification:'FreeSans Semi-Bold';fill:#999999"
                   id="tspan8611-6-0-7-4">Paste text <tspan
   style="fill:#0000ff"
   id="tspan7229-2-6-6-4">Ctrl+V</tspan></tspan></text>
            </g>
            <g
               id="g5160"
               transform="translate(205.32565,-80.352454)">
              <path
                 inkscape:connector-curvature="0"
                 style="color:#4d4d4d;fill:#666666;fill-opacity:1;stroke:none"
                 d="m 13.217647,601.01749 c -0.33434,0.57912 -0.50851,0.57912 -0.17417,1.15821 l 2.05062,3.55607 -1.19215,2.04269 c -0.25784,-0.23827 -0.60024,-0.38682 -0.98062,-0.38682 -0.80206,0 -1.44776,0.6457 -1.44776,1.44775 0,0.80206 0.6457,1.44776 1.44776,1.44776 0.80205,0 1.44775,-0.6457 1.44775,-1.44776 0,-0.0968 -0.0102,-0.19141 -0.0283,-0.28277 l 0.67299,-1.16612 c 0.45195,-5.8e-4 0.50891,-0.44857 0.77251,-0.45468 l 0.92861,1.61062 c -0.0192,0.0944 -0.0294,0.1927 -0.0294,0.29295 0,0.80206 0.6457,1.44776 1.44777,1.44776 0.80205,0 1.44775,-0.6457 1.44775,-1.44776 0,-0.80205 -0.6457,-1.44775 -1.44775,-1.44775 -0.37836,0 -0.71872,0.14742 -0.97612,0.38342 l -1.18987,-2.03929 2.05061,-3.55607 c 0.33435,-0.57909 0.16016,-0.57909 -0.17418,-1.15821 l -2.31301,3.96551 -2.31303,-3.96551 m 2.30963,4.63284 c 0.16041,0 0.28955,0.12914 0.28955,0.28954 0,0.16042 -0.12914,0.28956 -0.28955,0.28956 -0.16041,0 -0.28955,-0.12914 -0.28955,-0.28956 0,-0.1604 0.12914,-0.28954 0.28955,-0.28954 z m -2.60596,2.3164 c 0.48122,0 0.86865,0.38743 0.86865,0.86866 0,0.48124 -0.38743,0.86865 -0.86865,0.86865 -0.48124,0 -0.86866,-0.38741 -0.86866,-0.86865 0,-0.48123 0.38742,-0.86866 0.86866,-0.86866 m 5.21193,0 c 0.48123,0 0.86865,0.38743 0.86865,0.86866 0,0.48124 -0.38742,0.86865 -0.86865,0.86865 -0.48124,0 -0.86865,-0.38741 -0.86865,-0.86865 0,-0.48123 0.38741,-0.86866 0.86865,-0.86866"
                 class="ColorScheme-Text"
                 id="path10812" />
              <text
                 xml:space="preserve"
                 style="font-style:normal;font-weight:normal;font-size:12.5px;line-height:125%;font-family:sans-serif;letter-spacing:0px;word-spacing:0px;fill:#999999;fill-opacity:1;stroke:none;stroke-width:1px;stroke-linecap:butt;stroke-linejoin:miter;stroke-opacity:1"
                 x="27.501753"
                 y="610.13782"
                 id="text5339-2-7-3"
                 sodipodi:linespacing="125%"><tspan
                   sodipodi:role="line"
                   x="27.501753"
                   y="610.13782"
                   style="font-style:normal;font-variant:normal;font-weight:normal;font-stretch:normal;font-family:FreeSans;-inkscape-font-specification:'FreeSans Semi-Bold';fill:#999999"
                   id="tspan8611-6-07">Cut text <tspan
   style="fill:#0000ff"
   id="tspan7229-2-8">Ctrl+X</tspan></tspan></text>
            </g>
            <g
               id="g5205"
               transform="translate(206.34688,-127.7843)">
              <path
                 inkscape:connector-curvature="0"
                 style="color:#4d4d4d;fill:#666666;fill-opacity:1;stroke:none"
                 d="m 14.400637,664.09687 c -1.87247,0 -3.37991,1.50744 -3.37991,3.37992 0,1.87247 1.50744,3.37991 3.37991,3.37991 0.8344,0 1.59453,-0.3012 2.18288,-0.79877 l 3.05204,3.05205 0.39829,-0.39829 -3.05206,-3.05204 c 0.49757,-0.58835 0.79878,-1.34847 0.79878,-2.18286 0,-1.87248 -1.50744,-3.37992 -3.37993,-3.37992 z m 0,0.56332 c 1.56041,0 2.81661,1.2562 2.81661,2.8166 0,1.56039 -1.2562,2.81659 -2.81661,2.81659 -1.56039,0 -2.81659,-1.2562 -2.81659,-2.81659 0,-1.5604 1.2562,-2.8166 2.81659,-2.8166 z"
                 class="ColorScheme-Text"
                 id="path10847" />
              <text
                 xml:space="preserve"
                 style="font-style:normal;font-weight:normal;font-size:12.5px;line-height:125%;font-family:sans-serif;letter-spacing:0px;word-spacing:0px;fill:#999999;fill-opacity:1;stroke:none;stroke-width:1px;stroke-linecap:butt;stroke-linejoin:miter;stroke-opacity:1"
                 x="27.501753"
                 y="673.09094"
                 id="text5339-2-7-2-4-4-0"
                 sodipodi:linespacing="125%"><tspan
                   sodipodi:role="line"
                   x="27.501753"
                   y="673.09094"
                   style="font-style:normal;font-variant:normal;font-weight:normal;font-stretch:normal;font-family:FreeSans;-inkscape-font-specification:'FreeSans Semi-Bold';fill:#999999"
                   id="tspan8611-6-0-7-9-6">Find in current file <tspan
   style="fill:#0000ff"
   id="tspan7229-2-6-6-2-8">Ctrl+F</tspan></tspan></text>
            </g>
          </g>
        </g>
      </g>
    </g>
  </g>
</svg>
